<?xml version="1.0" standalone="no"?>
<!DOCTYPE svg PUBLIC "-//W3C//DTD SVG 20010904//EN"
 "http://www.w3.org/TR/2001/REC-SVG-20010904/DTD/svg10.dtd">
<svg version="1.0" xmlns="http://www.w3.org/2000/svg"
 width="260.000000pt" height="260.000000pt" viewBox="0 0 260.000000 260.000000"
 preserveAspectRatio="xMidYMid meet">
<metadata>
Created by potrace 1.14, written by Peter Selinger 2001-2017
</metadata>
<g transform="translate(0.000000,260.000000) scale(0.100000,-0.100000)"
fill="#000000" stroke="none">
<path d="M907 2508 c-94 -34 -295 -186 -368 -276 -19 -24 -44 -56 -57 -70 -12
-15 -31 -45 -42 -67 -11 -22 -29 -53 -40 -70 -24 -37 -48 -120 -46 -160 1 -16
-1 -35 -5 -40 -8 -11 -4 -203 7 -302 l6 -62 -33 -4 c-81 -12 -88 -6 -119 98
-25 84 -30 91 -64 87 -17 -3 -36 -11 -41 -19 -6 -8 -17 -13 -25 -11 -18 4 -27
-37 -29 -127 -1 -91 33 -308 59 -370 4 -11 16 -42 25 -70 10 -27 27 -63 39
-80 12 -16 26 -39 32 -50 28 -52 42 -72 86 -114 60 -60 102 -91 122 -91 9 0
16 -7 16 -15 0 -9 9 -15 24 -15 13 0 29 -7 36 -15 7 -8 16 -12 21 -9 5 3 12
-1 15 -9 3 -8 26 -21 52 -28 26 -7 49 -15 52 -18 3 -3 14 -11 25 -17 25 -14
29 -33 14 -70 -7 -16 -12 -34 -11 -39 2 -12 -72 -8 -103 5 -31 13 -95 20 -95
9 0 -5 -7 -9 -15 -9 -13 0 -21 -26 -16 -54 1 -5 -3 -12 -9 -16 -6 -4 -8 -13
-5 -21 9 -21 100 -81 180 -118 39 -18 77 -36 85 -40 8 -5 40 -14 70 -21 30 -8
60 -17 65 -21 13 -10 150 -29 225 -32 49 -2 90 1 195 16 17 3 46 14 65 26 19
11 42 21 51 21 9 0 19 7 23 15 3 8 12 15 19 15 8 0 33 14 55 30 23 17 45 30
50 30 11 0 62 49 62 60 0 6 8 10 18 10 10 0 24 6 31 12 11 10 14 10 18 1 3 -7
10 -13 17 -13 7 0 21 -15 31 -33 16 -31 17 -35 1 -58 -9 -14 -36 -46 -61 -72
-47 -50 -55 -71 -30 -81 8 -3 15 -13 15 -21 0 -10 5 -13 12 -9 6 4 17 -1 24
-10 11 -16 17 -16 50 -6 66 22 194 104 265 170 9 8 35 32 58 54 23 21 54 55
69 75 15 20 35 45 45 55 9 11 26 38 37 60 11 23 29 55 40 71 26 39 49 121 46
163 -2 18 0 35 5 37 7 5 4 197 -6 297 -5 55 -4 58 23 71 65 31 92 7 127 -113
19 -67 30 -87 39 -71 4 6 18 11 31 11 13 0 27 5 30 10 4 6 14 9 23 8 11 -2 18
7 23 27 12 55 9 189 -7 270 -8 44 -16 89 -17 100 -4 26 -17 75 -27 100 -4 11
-16 43 -25 70 -10 28 -27 64 -39 80 -12 17 -32 50 -45 74 -26 48 -101 131
-119 131 -5 0 -20 11 -33 25 -13 13 -32 25 -41 25 -10 0 -18 7 -18 15 0 9 -9
15 -24 15 -13 0 -29 7 -36 15 -7 8 -18 15 -25 15 -7 0 -18 7 -25 15 -6 8 -15
14 -18 13 -16 -2 -72 15 -72 22 0 4 -11 11 -25 14 -28 7 -32 28 -13 73 6 15
10 33 9 40 -2 12 69 8 104 -7 32 -13 95 -20 95 -9 0 5 7 9 15 9 14 0 19 15 17
50 0 8 4 17 9 21 17 10 0 33 -52 68 -116 79 -305 153 -439 171 -100 14 -241
19 -260 10 -8 -4 -35 -10 -59 -13 -24 -2 -46 -9 -50 -14 -3 -5 -22 -15 -41
-23 -19 -7 -42 -19 -51 -27 -8 -7 -20 -13 -26 -13 -5 0 -29 -13 -51 -30 -23
-16 -45 -30 -50 -30 -11 0 -62 -49 -62 -60 0 -6 -8 -10 -17 -10 -9 0 -25 -7
-35 -17 -17 -15 -18 -15 -18 0 0 10 -5 17 -10 17 -6 0 -22 12 -35 28 -23 27
-23 27 -5 57 10 17 39 51 64 78 25 26 46 53 46 60 0 14 -35 47 -49 47 -5 0
-11 7 -15 15 -6 17 -19 18 -59 3z m440 -1014 c17 -8 38 -12 46 -8 8 3 21 -1
28 -9 8 -8 21 -16 28 -18 17 -6 63 -151 62 -194 0 -19 -10 -39 -28 -55 -15
-14 -39 -43 -53 -63 -14 -21 -39 -44 -55 -51 -31 -13 -96 -10 -106 5 -3 5 -25
10 -49 12 -24 2 -46 9 -48 15 -2 7 -12 12 -23 12 -12 0 -19 7 -19 18 0 10 -11
52 -25 94 -28 84 -24 111 17 144 13 11 34 36 48 57 41 63 98 76 177 41z"/>
</g>
</svg>
