<?xml version="1.0" standalone="no"?>
<!DOCTYPE svg PUBLIC "-//W3C//DTD SVG 20010904//EN"
 "http://www.w3.org/TR/2001/REC-SVG-20010904/DTD/svg10.dtd">
<svg version="1.0" xmlns="http://www.w3.org/2000/svg"
 width="1024.000000pt" height="1024.000000pt" viewBox="0 0 1024.000000 1024.000000"
 preserveAspectRatio="xMidYMid meet">
<metadata>
Created by potrace 1.14, written by Peter Selinger 2001-2017
</metadata>
<g transform="translate(0.000000,1024.000000) scale(0.100000,-0.100000)"
fill="#000000" stroke="none">
<path d="M4270 7736 c0 -4 -6 -6 -14 -3 -8 3 -40 0 -72 -8 -32 -7 -62 -11 -66
-9 -5 3 -8 1 -8 -4 0 -5 -14 -12 -31 -16 -49 -9 -182 -70 -246 -112 -90 -59
-174 -140 -245 -237 -22 -28 -45 -59 -52 -68 -7 -8 -28 -44 -47 -80 -19 -35
-38 -67 -43 -71 -6 -3 -22 0 -38 8 -15 8 -28 11 -28 7 0 -5 -7 1 -15 11 -11
14 -15 16 -15 5 -1 -10 -3 -9 -11 4 -6 9 -14 15 -19 12 -5 -3 -11 -1 -15 5 -3
5 -15 10 -26 10 -10 0 -19 4 -19 9 0 5 -7 12 -16 15 -8 3 -12 2 -9 -4 3 -5 -7
-3 -22 5 -15 8 -36 15 -45 15 -10 0 -18 4 -18 8 0 4 -8 8 -17 9 -20 2 -49 8
-105 22 -20 5 -40 6 -43 3 -3 -4 -10 0 -16 8 -7 13 -10 13 -18 1 -5 -7 -11 -9
-14 -4 -6 9 -47 14 -132 16 -27 1 -53 6 -57 12 -5 6 -8 6 -8 -2 0 -7 -20 -12
-52 -12 -93 -2 -118 -4 -118 -13 0 -11 -23 -6 -32 7 -5 6 -8 6 -8 -1 0 -6 -32
-17 -70 -24 -38 -7 -70 -16 -70 -19 0 -4 -8 -7 -17 -8 -44 -3 -63 -8 -63 -15
0 -4 -9 -8 -20 -8 -11 0 -20 -5 -20 -11 0 -5 -4 -8 -10 -4 -8 5 -45 -10 -60
-25 -3 -3 -9 -5 -15 -6 -23 -3 -55 -17 -55 -25 0 -5 -9 -9 -20 -9 -11 0 -20
-4 -20 -10 0 -5 -7 -10 -15 -10 -9 0 -18 -7 -21 -15 -4 -8 -10 -15 -16 -15 -5
0 -6 6 -3 13 4 6 -3 1 -15 -13 -12 -14 -27 -25 -32 -25 -5 0 -15 -8 -22 -17
-7 -10 -16 -15 -19 -11 -4 3 -7 0 -7 -7 0 -7 -3 -11 -6 -7 -8 8 -33 -16 -27
-26 2 -4 1 -6 -4 -5 -14 4 -54 -23 -48 -33 4 -5 2 -9 -4 -9 -5 0 -33 -22 -62
-50 -29 -27 -50 -50 -47 -50 3 0 -11 -17 -31 -37 -20 -21 -47 -53 -61 -72 -14
-19 -29 -39 -35 -45 -23 -26 -74 -105 -97 -151 -83 -165 -129 -375 -129 -592
0 -84 2 -160 5 -170 2 -10 7 -40 11 -68 10 -81 34 -174 67 -265 18 -47 35 -87
38 -90 9 -7 50 -98 50 -110 0 -5 4 -10 9 -10 5 0 19 -19 31 -42 12 -24 28 -47
36 -51 8 -4 14 -13 14 -19 0 -6 29 -44 64 -84 47 -54 63 -79 59 -94 -3 -11 -9
-20 -14 -20 -5 0 -9 -6 -9 -13 0 -7 -11 -24 -25 -39 -27 -29 -33 -43 -12 -32
6 4 2 -3 -10 -15 -20 -19 -24 -30 -23 -56 1 -3 -6 -13 -15 -21 -8 -9 -16 -22
-16 -30 -2 -16 -5 -33 -9 -36 -2 -4 -11 -41 -12 -55 -1 -7 -5 -10 -10 -7 -4 3
-8 -2 -8 -11 0 -13 -6 -16 -23 -11 -13 3 -50 8 -82 11 -33 3 -76 8 -96 10 -20
2 -39 1 -43 -2 -3 -3 -32 -7 -63 -8 -32 -2 -58 -3 -58 -4 0 -1 -16 -4 -35 -5
-48 -5 -94 -14 -123 -25 -14 -6 -28 -7 -31 -4 -3 4 -6 1 -6 -6 0 -7 -4 -9 -10
-6 -5 3 -10 2 -10 -3 0 -6 -9 -8 -20 -5 -11 3 -20 0 -20 -6 0 -6 -9 -11 -19
-11 -11 0 -23 -5 -26 -10 -4 -6 -11 -8 -16 -5 -5 4 -9 1 -9 -5 0 -6 -4 -8 -10
-5 -5 3 -10 1 -10 -4 0 -6 -3 -10 -8 -9 -18 4 -113 -48 -182 -99 -95 -71 -155
-134 -234 -248 -81 -115 -105 -163 -151 -305 -36 -109 -38 -123 -41 -265 -5
-278 62 -522 182 -660 19 -22 34 -44 34 -49 0 -11 171 -180 226 -222 57 -44
179 -112 243 -136 31 -11 108 -34 171 -51 l115 -30 287 -1 c185 -1 288 -5 288
-11 0 -5 5 -3 10 5 7 11 10 11 10 2 0 -8 5 -10 12 -6 6 4 88 9 182 10 94 2
173 4 176 5 3 1 9 1 14 0 27 -6 306 -2 315 4 6 3 11 0 11 -7 0 -8 3 -9 8 -3
10 14 42 15 42 1 0 -6 5 -4 10 4 6 9 10 11 10 3 0 -9 7 -10 22 -4 13 4 35 5
50 0 16 -4 28 -4 28 0 0 9 42 7 58 -3 7 -4 12 -4 12 1 0 10 52 9 68 -1 7 -4
12 -4 12 1 0 9 133 8 156 -1 8 -3 14 -2 14 2 0 6 163 7 180 1 3 -1 10 0 15 1
6 1 38 2 73 2 41 0 62 3 62 11 0 9 2 9 8 1 10 -15 734 -15 744 0 5 7 8 7 8 -1
0 -7 7 -13 16 -13 9 0 12 5 8 12 -5 7 -3 8 7 2 22 -13 100 -14 92 0 -5 8 -3 8
8 0 16 -12 237 -13 256 -1 6 4 15 3 18 -3 5 -8 12 -7 23 2 9 7 13 8 10 2 -9
-13 154 -13 164 1 5 6 8 4 8 -5 0 -13 1 -13 10 0 5 8 10 10 10 3 0 -12 17 -12
36 0 6 3 14 3 18 -1 11 -10 116 -9 116 1 0 4 6 5 13 0 16 -10 107 -11 113 -1
3 5 11 5 17 1 17 -11 107 -10 107 1 0 4 8 2 17 -5 15 -12 16 -12 8 1 -7 13 -6
13 7 2 17 -14 39 -13 50 3 5 6 8 5 8 -4 0 -11 3 -11 15 -1 12 10 15 10 15 0 0
-10 3 -10 15 0 8 7 15 8 15 3 0 -11 41 -9 59 1 5 4 12 2 15 -2 6 -11 36 -9 55
2 7 5 16 5 20 0 9 -13 41 -14 41 -2 0 7 5 7 13 1 14 -11 27 -11 45 0 7 5 12 3
12 -4 0 -8 4 -8 15 1 12 10 15 10 15 -1 0 -11 2 -11 10 1 5 8 10 11 10 5 0 -5
20 -10 44 -10 24 0 42 3 39 7 -2 5 7 4 21 -2 14 -5 26 -6 26 -2 0 10 42 8 58
-2 7 -4 12 -2 12 5 0 8 4 9 13 0 10 -8 17 -7 25 1 7 7 12 8 12 2 0 -5 9 -10
20 -10 11 0 20 3 20 6 0 3 11 5 25 5 14 0 25 -4 25 -10 0 -5 5 -3 10 5 5 8 10
11 10 5 0 -5 11 -10 25 -10 14 0 25 4 25 10 0 5 5 4 12 -3 8 -8 15 -9 25 -1 9
9 13 8 13 0 0 -8 6 -9 18 -4 15 8 38 9 52 3 20 -7 40 -7 40 1 0 6 7 6 18 0 11
-6 24 -6 32 -1 9 5 19 5 27 -2 9 -7 13 -7 13 0 0 12 18 11 39 -3 10 -5 16 -5
18 2 3 7 14 8 33 3 18 -5 32 -4 39 3 8 8 11 7 11 -3 0 -11 3 -11 12 -2 14 14
32 16 23 3 -3 -6 6 -6 25 -1 18 5 32 5 36 -1 4 -6 11 -6 19 1 9 8 15 8 20 0 3
-6 11 -8 16 -4 17 10 68 11 72 0 2 -6 9 -6 17 -1 20 12 50 14 50 3 0 -5 4 -6
10 -3 18 11 50 14 55 4 4 -5 13 -5 23 0 9 4 26 6 37 4 29 -6 37 -6 68 0 17 4
27 1 27 -6 0 -8 3 -8 8 -2 8 12 52 13 70 2 6 -5 12 -4 12 1 0 8 39 10 48 2 6
-5 49 -3 59 3 6 4 14 3 18 -3 4 -6 12 -7 24 0 12 6 22 5 31 -3 10 -9 11 -9 6
1 -8 13 19 13 40 -1 6 -3 14 -3 18 1 10 10 216 9 216 -1 0 -5 5 -5 12 -1 18
12 78 11 78 0 0 -7 3 -8 8 -1 6 9 61 12 87 5 22 -6 41 -5 62 2 12 4 25 3 28
-2 4 -7 13 -7 24 0 12 6 22 5 29 -2 7 -7 12 -8 12 -2 0 11 40 12 57 1 5 -4 13
-4 17 0 9 10 136 9 136 0 0 -5 5 -5 12 -1 18 12 59 14 53 3 -3 -5 0 -6 7 -4
21 8 88 12 88 5 0 -3 9 -6 20 -6 11 0 20 3 20 6 0 6 41 5 48 0 7 -7 29 -5 45
2 10 5 17 5 17 -1 0 -7 27 -8 38 -1 7 6 49 3 60 -4 7 -4 12 -2 12 6 0 10 2 10
9 0 11 -17 21 -17 32 0 5 7 9 8 9 3 0 -13 119 -13 139 -1 9 6 12 5 8 -1 -4 -7
20 -10 71 -9 42 1 85 -2 96 -7 12 -6 16 -6 12 2 -6 9 68 6 102 -4 6 -3 12 -1
12 4 0 11 44 8 52 -4 5 -6 8 -5 8 3 0 8 9 11 25 8 13 -3 27 0 31 5 3 5 14 7
25 4 12 -4 19 -2 19 7 0 10 3 9 10 -2 7 -11 10 -11 10 -2 0 7 8 12 18 11 16
-2 29 2 80 22 13 5 28 7 33 4 5 -4 9 -2 9 4 0 5 10 13 23 17 12 3 30 13 40 22
9 8 17 11 17 7 0 -4 10 0 22 11 13 12 18 13 13 4 -5 -8 2 -5 16 7 46 43 72 63
81 63 5 0 7 4 4 9 -3 4 6 13 21 20 14 6 23 14 21 16 -3 3 12 24 34 47 21 23
38 45 38 51 0 16 37 57 45 49 5 -4 6 -2 2 4 -3 5 9 48 28 94 22 55 30 87 23
91 -7 5 -7 8 1 10 7 3 13 18 15 34 2 17 5 30 6 30 1 0 2 39 3 88 1 48 0 87 -3
87 -4 0 -7 11 -8 25 -1 14 -2 36 -3 50 -1 14 -6 25 -11 25 -5 0 -7 4 -3 9 3 5
1 12 -4 16 -5 3 -8 15 -6 26 2 11 -2 22 -10 25 -7 3 -11 12 -8 20 3 8 0 14 -6
14 -6 0 -11 5 -11 11 0 5 6 7 13 4 6 -4 4 0 -5 8 -10 8 -18 19 -18 25 0 6 -8
16 -17 21 -10 6 -14 11 -10 11 11 0 -25 60 -36 60 -4 0 -5 5 -2 10 3 5 -1 10
-10 10 -11 0 -15 5 -11 16 3 8 2 13 -3 10 -5 -3 -14 1 -21 9 -7 8 -9 15 -6 15
4 0 1 6 -6 14 -7 8 -15 12 -17 10 -2 -1 -9 2 -15 9 -7 7 -27 23 -45 37 -18 14
-39 31 -47 38 -8 7 -14 10 -14 6 0 -4 -8 -1 -17 7 -28 22 -61 39 -78 39 -8 0
-15 5 -15 10 0 6 -9 10 -21 10 -11 0 -29 5 -40 11 -11 6 -33 11 -50 11 -16 1
-29 4 -29 7 0 6 -81 14 -167 15 -29 0 -53 4 -53 7 0 4 -7 6 -16 5 -15 -1 -78
85 -103 142 -6 12 -18 22 -26 22 -9 0 -13 5 -10 11 4 5 -13 30 -38 54 -25 24
-43 46 -39 49 3 3 0 6 -7 6 -14 0 -31 16 -50 45 l-13 20 6 -20 c6 -19 5 -19
-8 -2 -8 10 -23 25 -33 34 -10 8 -12 11 -4 7 10 -5 12 -3 7 5 -5 7 -11 10 -14
7 -3 -4 -17 4 -30 16 -14 13 -22 17 -18 11 5 -9 2 -11 -8 -7 -9 3 -13 10 -10
15 3 5 -2 9 -10 9 -9 0 -16 4 -16 10 0 5 -3 9 -7 9 -19 -3 -34 2 -29 9 2 4 -5
9 -17 9 -12 1 -23 7 -25 13 -2 5 -7 8 -12 5 -5 -3 -16 2 -24 11 -9 9 -16 11
-16 4 0 -7 -7 -5 -16 4 -8 9 -20 14 -25 11 -5 -4 -9 -2 -9 3 0 5 -6 9 -12 10
-14 1 -50 9 -58 13 -3 1 -9 3 -15 3 -5 1 -30 7 -55 13 -103 27 -132 30 -221
27 -89 -3 -214 -25 -249 -44 -9 -5 -27 -11 -41 -13 -31 -5 -51 -13 -123 -46
-48 -23 -63 -26 -82 -17 -15 7 -19 13 -11 18 8 5 4 8 -9 8 -12 0 -27 7 -34 15
-7 9 -8 15 -2 15 12 0 11 18 -2 39 -7 10 -6 12 4 6 10 -6 12 0 8 24 -2 17 -2
31 2 31 3 0 6 8 7 18 1 9 4 28 5 42 2 14 -1 28 -7 32 -6 5 -6 8 3 8 6 0 12 5
12 11 0 5 -6 7 -12 3 -10 -6 -10 -5 -1 7 10 12 10 18 0 29 -9 10 -9 11 1 6 6
-4 12 -3 12 3 0 5 -6 12 -12 14 -10 4 -10 6 0 6 7 1 10 6 7 12 -4 6 -9 36 -11
67 -2 31 -5 71 -6 87 -1 17 -6 32 -10 36 -4 3 -9 18 -12 35 -3 27 -6 36 -23
82 -8 23 -14 45 -15 60 -1 6 -6 12 -11 12 -5 0 -7 9 -4 20 3 11 1 20 -4 20 -9
0 -24 29 -29 55 -1 6 -8 18 -17 27 -8 9 -12 22 -8 27 3 6 2 11 -3 11 -6 0 -17
18 -26 40 -9 22 -21 40 -27 40 -5 0 -8 4 -4 9 3 5 -4 16 -16 25 -12 8 -19 18
-16 23 3 5 -6 18 -20 28 -14 11 -29 30 -34 42 -5 13 -15 23 -24 23 -8 0 -14 4
-12 8 2 10 -81 92 -94 92 -4 0 -5 7 -2 17 4 10 2 14 -4 10 -6 -4 -22 4 -34 18
-13 13 -29 25 -36 25 -6 0 -15 5 -19 12 -5 7 -3 8 6 3 8 -5 11 -4 6 3 -4 6
-13 9 -20 6 -7 -3 -16 2 -20 11 -3 9 -10 13 -16 10 -5 -3 -10 1 -10 10 0 9 -4
14 -9 11 -5 -3 -14 1 -21 9 -7 8 -16 12 -21 10 -4 -3 -12 3 -18 12 -6 10 -11
14 -11 9 0 -6 -7 -1 -16 10 -8 10 -12 13 -9 6 6 -11 3 -11 -14 0 -12 7 -21 16
-21 20 0 3 -11 5 -25 4 -13 -2 -23 0 -22 3 1 3 0 6 -3 6 -3 1 -23 10 -45 21
-58 30 -138 54 -163 49 -13 -2 -20 0 -17 6 4 5 -4 9 -17 10 -13 0 -32 3 -43 6
-11 3 -91 7 -178 9 -87 2 -162 6 -167 9 -4 3 -7 16 -5 30 1 14 -2 25 -6 25 -5
0 -9 11 -9 25 0 25 -2 32 -33 91 -9 17 -14 34 -10 38 3 3 2 6 -4 6 -11 0 -38
50 -34 63 1 5 -3 6 -9 2 -5 -3 -10 -1 -10 5 0 5 -20 30 -43 55 -24 25 -42 47
-39 50 3 3 -2 5 -12 5 -10 0 -14 5 -10 12 4 6 3 8 -3 5 -5 -3 -21 5 -36 19
-15 14 -27 22 -27 19 0 -4 -7 1 -16 9 -8 9 -19 14 -24 11 -4 -3 -11 2 -14 11
-4 9 -13 14 -21 10 -8 -3 -15 -1 -15 3 0 5 -31 19 -68 30 -93 29 -112 33 -153
32 -36 -2 -60 21 -38 35 6 3 8 13 5 21 -3 8 -2 12 3 9 15 -10 21 294 6 330 -4
10 -9 37 -11 58 -2 22 -7 42 -11 45 -7 5 -10 18 -16 74 0 9 -4 17 -8 17 -4 0
-10 7 -13 16 -3 8 -2 13 3 10 5 -3 -3 18 -18 47 -14 28 -29 54 -34 55 -4 2 -5
7 -2 12 3 5 -2 16 -11 24 -8 9 -13 16 -9 16 4 0 -1 7 -9 16 -9 8 -16 22 -16
30 0 8 -4 12 -10 9 -5 -3 -10 0 -10 8 0 7 -9 23 -20 35 -11 12 -20 24 -20 27
0 7 -137 145 -145 145 -11 0 -34 27 -29 33 3 3 -3 4 -13 4 -10 -1 -17 4 -15
11 1 8 -2 11 -8 7 -5 -3 -10 -1 -10 5 0 6 -4 8 -10 5 -5 -3 -10 -2 -10 3 0 5
-13 15 -30 22 -16 7 -30 16 -30 21 0 5 -3 8 -7 7 -14 -4 -53 13 -53 22 0 5 -7
6 -17 3 -12 -5 -14 -3 -8 7 6 10 4 12 -7 7 -9 -3 -25 1 -37 9 -12 8 -26 12
-31 9 -6 -3 -10 -1 -10 5 0 7 -7 10 -15 6 -8 -3 -15 -2 -15 3 0 4 -6 8 -12 9
-26 3 -63 10 -65 12 -2 2 -6 3 -10 4 -5 1 -12 4 -18 6 -5 3 -31 6 -57 5 -25 0
-45 2 -43 5 2 3 -28 5 -65 5 -40 0 -66 -3 -63 -9 4 -5 1 -6 -7 -1 -18 11 -80
12 -80 1z"/>
</g>
</svg>
